<svg xmlns="http://www.w3.org/2000/svg" width="923.793" height="641.806" viewBox="0 0 923.793 641.806">
  <g id="animation" transform="translate(-17827 -8376)">
    <g id="man">
      <path id="Path_1" data-name="Path 1" d="M573.1,755.439c0,9.941-91,11-203,18-111.895,6.993-203-8.059-203-18s91.524-29.944,203-18C482.1,749.439,573.1,745.5,573.1,755.439Z" transform="translate(17659.9 8242.231)" fill="#e6e6e6"/>
      <path id="Path_4" data-name="Path 4" d="M528.288,411.513l21.739,43.037,65,29.551c6.942,11.731,29,12.629,30.6,5.043,1.8-8.511-26.786-22.209-26.786-22.209l-54.368-36.773L559.721,398.5Z" transform="translate(17659.9 8242.231)" fill="#a0616a"/>
      <path id="Path_5" data-name="Path 5" d="M363.753,575.559l-4.009,32.073,23.253,1.6,2.4-33.677Z" transform="translate(17827 8367)" fill="#a0616a"/>
      <path id="Path_6" data-name="Path 6" d="M534.06,727.59a62.971,62.971,0,0,1-5.738-7.017c-3.332-4.612-6.289,19.044-6.289,19.044s-3.207,9.622-2.405,14.433,19.244,4.811,22.451,4.009,19.244,0,19.244,0h24.055c20.847-9.622,0-16.036,0-16.036-6.415-.8-28.064-20.847-28.064-20.847l-4.811-8.82c-3.207-.8-6.415,11.226-6.415,11.226Z" transform="translate(17659.9 8242.231)" fill="#2f2e41"/>
      <path id="Path_7" data-name="Path 7" d="M303.617,575.96l-4.01,32.073,23.253,1.6,2.406-33.677Z" transform="translate(17827 8367)" fill="#a0616a"/>
      <path id="Path_8" data-name="Path 8" d="M473.923,727.991a62.965,62.965,0,0,1-5.738-7.017c-3.332-4.611-6.289,19.044-6.289,19.044s-3.207,8.82-2.405,13.631,19.244,4.811,22.451,4.009,19.244.8,19.244.8H525.24c20.847-9.622,0-16.036,0-16.036-6.415-.8-28.064-20.847-28.064-20.847l-4.811-8.82c-3.207-.8-6.415,11.226-6.415,11.226Z" transform="translate(17659.9 8242.231)" fill="#2f2e41"/>
      <path id="Path_9" data-name="Path 9" d="M497.176,493.859c-3.207,4.009-1.6,17.64-1.6,17.64s-5.613,44.1-3.207,48.109-1.6,7.216-4.009,12.829-4.811,19.244-4.811,19.244c-13.631,11.225-12.829,62.542-12.829,62.542l-4.811,45.7c1.6,4.811,24.055,5.613,27.262,4.811S506,631.772,506,631.772l21.649-40.893s-1.6,109.048-1.6,113.859,21.649,2.406,26.46,2.406,4.811-80.182,4.811-80.182l4.811-20.847L587.782,510.7V499.472l-4.009-5.613S500.383,489.85,497.176,493.859Z" transform="translate(17659.9 8242.231)" fill="#2f2e41"/>
      <circle id="Ellipse_1" data-name="Ellipse 1" cx="24.857" cy="24.857" r="24.857" transform="translate(18167.5 8504.363)" fill="#a0616a"/>
      <path id="Path_10" data-name="Path 10" d="M544.884,298.615c-5.038,11.22-2.055,26.89,8.018,44.1l-40.893-19.244,6.415-5.613-1.6-16.036Z" transform="translate(17659.9 8242.231)" fill="#a0616a"/>
      <path id="Path_11" data-name="Path 11" d="M544.884,324.274c5.355,3.184,8.558,9.033,10.4,14.985a142.008,142.008,0,0,1,6.1,33.929l1.942,34.475,24.055,91.408c-20.847,17.64-32.875,13.631-60.938-.8s-31.271,4.811-31.271,4.811-2.405-.8,0-3.207,0,0-2.405-2.405,0,0,.8-2.405,0-.8-.8-1.6,3.207-8.018,3.207-8.018L489.559,425.3l-8.018-84.993c9.622-12.027,36.884-22.451,36.884-22.451l24.856,17.64c8.018,3.207,1.6-9.622,1.6-9.622Z" transform="translate(17659.9 8242.231)" fill="#7c05ff"/>
      <path id="Path_12" data-name="Path 12" d="M468.31,391.226,465.1,439.335,506,497.868c0,13.631,7.216,16.838,7.216,16.838a105.99,105.99,0,0,0,7.216-13.631c4.009-8.82-2.406-16.036-2.406-16.036L489.959,425.7l12.028-29.667Z" transform="translate(17659.9 8242.231)" fill="#a0616a"/>
      <path id="Path_13" data-name="Path 13" d="M481.942,340.711c-13.631,4.811-16.036,56.929-16.036,56.929,16.036-8.82,35.28,5.613,35.28,5.613s4.009-13.631,8.82-31.271a30.644,30.644,0,0,0-6.415-28.866S495.573,335.9,481.942,340.711Z" transform="translate(17659.9 8242.231)" fill="#7c05ff"/>
      <path id="Path_14" data-name="Path 14" d="M509.6,294.606c3.164-2.531,7.481,2.07,7.481,2.07l2.531-22.783s15.822,1.9,25.948-.633,11.708,9.177,11.708,9.177a81.26,81.26,0,0,0,.316-14.24c-.633-5.7-8.86-11.392-23.416-15.189s-22.15,12.657-22.15,12.657C501.9,270.729,506.44,297.138,509.6,294.606Z" transform="translate(17659.9 8242.231)" fill="#2f2e41"/>
    </g>
    <g id="phone" transform="translate(-228 2)">
      <path id="Path_2" data-name="Path 2" d="M1001.14,124.77H760.527a51.15,51.15,0,0,0-49.9,39.9L589.051,703.938a41.34,41.34,0,0,0,38.294,50.382L874.7,766.507a54.615,54.615,0,0,0,56.43-44.827L1000.1,340.412l5.131,1.466,13.193-72.265-5.281-1.32,19.251-106.426a31.493,31.493,0,0,0-31.25-37.1Z" transform="translate(17945.9 8249.231)" fill="#3f3d56"/>
      <path id="Path_3" data-name="Path 3" d="M792.2,136.4H764.116a35.349,35.349,0,0,0-34.536,27.813l-116.7,534.868A21.9,21.9,0,0,0,632.849,725.6L879.4,741.76a28.367,28.367,0,0,0,29.773-23.278l99.579-552.838a24.846,24.846,0,0,0-24.452-29.25H957.658a11.726,11.726,0,0,0-11.323,8.677h0a10.352,10.352,0,0,1-10,7.661H809.847A17.7,17.7,0,0,1,792.2,136.394Z" transform="translate(17945.9 8249.231)" fill="#fff"/>
      <path id="Path_15" data-name="Path 15" d="M932.123,510.313a2.026,2.026,0,0,0,2.064-1.638l55.285-300.917a2,2,0,0,0-1.943-2.361L736,202.467h-.023a2.01,2.01,0,0,0-1.952,1.562l-65.174,291.15a2,2,0,0,0,1.854,2.434Z" transform="translate(17945.9 8249.231)" fill="#e6e6e6"/>
      <path id="Path_16" data-name="Path 16" d="M713.229,529.535a1,1,0,0,0-.973.773l-2.323,9.956a1,1,0,0,0,.9,1.225l131.23,9.327a1.009,1.009,0,0,0,1.053-.807l2.234-11.519a1,1,0,0,0-.922-1.188L713.29,529.537Z" transform="translate(17945.9 8249.231)" fill="#e6e6e6"/>
      <path id="Path_17" data-name="Path 17" d="M872.666,587.808a1,1,0,0,0,1.051-.758l2.844-11.543a1,1,0,0,0-.9-1.237L708.072,562.549a.989.989,0,0,0-1.029.713l-2.955,9.975a1,1,0,0,0,.878,1.28Z" transform="translate(17945.9 8249.231)" fill="#e6e6e6"/>
      <path id="Path_18" data-name="Path 18" d="M863.666,624.808a1,1,0,0,0,1.051-.758l2.844-11.543a1,1,0,0,0-.9-1.237L699.072,599.549a.989.989,0,0,0-1.029.713l-2.955,9.975a1,1,0,0,0,.878,1.28Z" transform="translate(17945.9 8249.231)" fill="#e6e6e6"/>
      <path id="Path_19" data-name="Path 19" d="M786.481,688.283a.989.989,0,0,0,1.064-.754l6.013-24.051a1,1,0,0,0-.886-1.24l-102.916-8.656a1.018,1.018,0,0,0-1.06.779l-5.129,23.083a1,1,0,0,0,.883,1.213Z" transform="translate(17945.9 8249.231)" fill="#7c05ff"/>
    </g>
  </g>
</svg>
