<svg xmlns="http://www.w3.org/2000/svg" width="2236.642" height="1930.819" viewBox="0 0 2236.642 1930.819">
  <g id="music" transform="translate(1972 1040.989)">
    <g id="background">
      <g id="_311428" data-name="311428" transform="translate(-1444.84 166.6)">
        <path id="Path_148" data-name="Path 148" d="M882.257-1206.1c-48.508,9.719-96.112,52.567-111.335,100.205-8.386,26.009-7.87,42.163,2.193,83.915,7.87,32.717,19.094,69.815,38.961,129.364,25.028,75.017,30.962,95.962,32.51,114.99,1.677,21.355-5.934,27.789-28.382,23.956-16.642-2.875-22.706-5.2-25.415-9.993-8.773-15.2-9.676-56.947-2.322-105.681,4.257-28.747,2.064-39.836-9.934-51.061-8.385-7.8-16.513-10.4-31.607-10.267-34.058.274-83.985,26.283-104.369,54.346-13.288,18.344-15.868,35.045-8,52.156,5.676,12.047,14.578,21.355,36.9,38.33,25.8,19.439,32.9,26.968,32.9,34.5,0,4.517-6.192,16.564-11.611,22.861-7.224,8.214-14.965,11.225-34.7,13.142-17.029,1.643-25.673.685-35.736-3.97-10.063-4.791-24.125-16.016-36.9-29.843-21.674-23.135-35.865-43.121-76.5-107.187-50.056-78.85-66.053-97.6-97.144-114.169-40.638-21.629-99.6-26.42-141.008-11.225-15.61,5.613-25.286,11.636-34.575,21.355-13.933,14.647-18.964,32.17-15.223,52.43,12.514,67.214,91.21,139.9,202.545,187,14.836,6.3,37.8,14.374,78.309,27.515,22.577,7.392,39.606,16.017,47.863,24.5,5.676,5.749,6.322,7.118,6.322,12.32,0,3.149-.645,7.118-1.548,8.761-4.257,8.761-15.481,21.082-33.93,37.509-16.384,14.648-23.351,19.713-33.543,25.188-13.159,6.845-25.028,10.815-32.51,10.815-3.741,0-4.257-.411-4.9-5.2-1.806-11.773-2.322-13.552-5.16-18.891C435.367-615,416.273-625.4,394.729-625.4c-24.254,0-42.573,11.5-52.507,32.991-4.515,9.583-4.9,11.225-4.9,22.313s.258,12.32,3.87,17.933c5.418,7.94,14.707,13.689,34.059,20.4,26.318,9.172,33.8,15.469,35.736,30.253.9,6.571-2.451,27.652-4.773,30.664-2.193,2.875-14.965,2.327-25.157-.958-18.577-6.023-44.121-20.4-72.116-40.657-32.639-23.546-60.377-48.46-94.822-85.147-13.8-14.784-28.64-29.295-32.768-32.17A99.6,99.6,0,0,0,146.772-644.7C93.1-656.337,34.92-611.71,12.989-542.169c-11.482,36.687-11.224,80.63.645,115.948,22.19,65.435,80.631,108.145,167.584,122.382,19.222,3.149,76.632,3.7,92.242.684,14.707-2.6,33.156-7.8,42.573-11.773,14.32-6.023,38.7-13.142,53.281-15.332,11.869-1.78,15.481-1.917,23.222-.411,8.128,1.506,9.934,2.464,14.578,7.392,6.321,6.571,7.741,11.362,9.547,30.664,2.064,23.682,0,26.694-32.123,45.859-18.577,11.088-117.786,64.476-126.43,68.036-18.964,7.8-50.185,13.826-84.759,16.29-11.224.821-29.543,2.19-40.638,2.875-35.994,2.6-59.6,8.35-81.405,19.849C23.18-124.646,7.441-103.975,1.765-74.544c-8,41.752,14.191,99.658,53.152,139.494,52.636,53.662,112.367,50.65,184.355-9.446,11.611-9.582,23.867-21.082,46.443-43.395,9.934-9.856,25.673-25.188,34.833-33.949,9.289-8.9,27.479-27.652,40.638-41.752,27.092-29.021,32.123-32.58,48.25-34.223,13.546-1.369,34.059.411,43.734,3.833,27.866,9.856,49.669,36.277,55.861,67.488,1.419,6.708,1.806,14.511,1.548,23.819-.516,12.047-1.032,14.784-4.128,20.26-8,14.648-26.963,36.824-70.31,82.957-48.379,51.472-63.473,68.857-78.438,89.938-42.96,60.78-43.218,114.442-.774,158.8,20.513,21.492,52.249,41.479,79.728,50.24,7.225,2.19,12.643,2.875,26.447,2.875,15.61,0,18.319-.411,26.705-3.559,52.507-20.4,80.115-92.129,86.824-225.736,1.677-34.36,3.225-47.365,6.966-63.518,8.257-34.223,25.8-53.114,53.023-57.084,19.222-2.738,39.606.548,79.341,13,10.966,3.422,31.994,9.309,46.7,13.142,14.578,3.7,27.479,7.118,28.511,7.666,2.451.958,6.063,10.951,6.063,16.975,0,8.214-4.515,25.462-18.448,69.815-14.836,47.091-19.739,64.477-24.77,86.242-8.9,39.288-11.224,80.219-5.805,101.985,19.093,76.523,85.017,106.5,144.749,65.708,19.738-13.552,42.7-42.711,54.571-69.541,8.773-19.576,11.482-31.622,11.353-50.24-.129-22.313-3.225-32.307-24.254-78.029-9.547-20.671-20.513-46-24.383-56.263s-11.74-29.158-17.545-41.889c-5.676-12.868-10.321-24.914-10.321-26.831,0-10.951,20.513-22.587,58.183-32.991,34.317-9.582,65.279-11.636,78.825-5.2,6.579,3.012,7.483,5.476,7.483,22.861.129,21.218,7.225,44.764,17.932,59.138,14.707,19.576,48.121,35.455,87.727,41.478,34.575,5.476,62.441-8.761,76.245-38.878,7.1-15.469,9.16-24.778,9.934-45.585,1.419-37.646-4.774-59.685-21.674-77.344C1187.623,18,1177.689,11.7,1149.694-2.127c-32.124-15.743-42.057-23.682-44.638-35.866-2.193-10.4,22.448-24.367,57.41-32.444,28.511-6.434,71.987-10.815,85.4-8.35,19.223,3.285,38.961,26.283,87.34,101.3,30.447,47.228,37.413,57.221,46.186,65.845,42.7,41.478,142.814,38.741,207.319-5.75,13.675-9.309,34.832-32.033,40.38-43.258,6.837-13.826,8.514-21.218,8.386-37.372-.129-11.225-.9-17.112-3.613-26.694-20-72.69-104.884-153.183-183.58-174.264-12-3.149-16.384-3.559-33.156-3.559-17.932,0-20.513.274-34.833,4.517-13.546,4.107-17.545,4.654-31.607,4.791-18.319.137-27.092-1.78-42.315-9.446-25.544-12.731-46.443-34.36-70.439-72.553-7.741-12.32-8.515-14.237-8.515-20.534,0-9.172,4.644-19.3,12.9-28.611,6.708-7.529,15.739-13.142,20.9-13.142,1.677,0,6.193,2.19,10.063,4.928,19.739,13.279,55.216,17.112,79.986,8.624,26.189-9.035,44.637-29.021,50.959-55.3,2.58-10.678,2.451-15.88-.645-28.611a90.456,90.456,0,0,0-87.727-69.268c-24.125,0-39.219,8.077-51.733,27.652-2.71,4.244-5.548,8.077-6.322,8.624-3.354,2.19-16-9.446-24.383-22.587-13.159-20.534-17.287-32.17-17.416-47.912,0-8.761.516-11.636,4.128-19.713,8-18.207,28.769-36.14,65.795-56.81,25.028-13.963,28.253-15.2,38.832-15.2,14.191,0,24.512,4.654,58.442,26.283,42.573,27.1,64.892,35.318,95.854,35.318,30.188,0,56.506-9.035,90.178-31.211,33.93-22.314,59.861-49.145,72.116-74.88,6.838-14.374,9.288-26.147,9.16-43.121,0-13.142-.645-17.522-3.483-26.694-13.288-42.847-58.957-81.041-114.432-95.825-41.67-11.088-71.214-7.529-110.948,13.689-38.961,20.671-67.988,43.121-145.781,112.936-48.766,43.669-55.474,49.418-69.665,59.411-14.32,10.13-19.351,11.773-25.286,8.35a27.672,27.672,0,0,1-7.741-7.118c-4.645-6.571-12.772-25.462-15.223-36-2.968-12.183-4-34.36-2.193-44.079,1.677-8.214,5.547-14.784,8.644-14.784,2.193,0,27.221-11.225,52.507-23.409,47.863-23.272,66.053-42.026,65.924-68.309a80.788,80.788,0,0,0-2.322-18.481c-3.483-12.594-15.481-37.372-22.706-46.817-27.479-36.277-71.729-48.186-103.208-27.652-12,7.8-22.06,22.313-27.479,39.836-2.322,7.255-4.773,25.736-4.773,36.277,0,6.16-.645,7.94-4.128,12.183-12.256,14.784-43.476,27.379-76.374,30.8-31.22,3.148-49.024-3.7-65.279-25.325-18.707-25.051-31.478-66.53-29.156-95,.774-9.993,2.58-16.153,20.126-68.72,20.642-62.149,27.608-104.175,22.706-139.083-6.45-46.818-29.414-79.124-63.989-90.212C916.315-1207.878,894.383-1208.563,882.257-1206.1Z" transform="translate(0 0)" fill="rgba(216,216,216,0.88)"/>
      </g>
      <g id="Ellipse_2" data-name="Ellipse 2" transform="translate(-1972 23)" fill="rgba(220,220,220,0.23)" stroke="rgba(220,220,220,0.93)" stroke-width="1">
        <ellipse cx="355" cy="360.5" rx="355" ry="360.5" stroke="none"/>
        <ellipse cx="355" cy="360.5" rx="354.5" ry="360" fill="none"/>
      </g>
      <g id="Michael_Jackson" transform="translate(-789 -896.989)">
        <g id="_ffffffff" data-name="#ffffffff" transform="translate(353.073 274.45)">
          <path id="Path_149" data-name="Path 149" d="M155.873,108.77c-1.8,4.07-7.1,6.21-5.71,11.24,1.06,6.12-2.46,13.84,1.74,19.13,1.11-5.11,1.11-11.06,4.14-15.36-.58,6.43,1.83,13.6-1.42,19.57-1.26,4.51-5.45,8.78-3.66,13.67,1.24,7.34,4.05,14.19,6.99,20.97-.94,4.99-2.73,9.86-2.75,15-.85,4.55,1.68,10.37-1.85,14.17-.04-6.37-4.74-11.64-4.48-18.08a87.284,87.284,0,0,1-.71-22.08l-.94.03c-1.54,20.61-3.83,43.79,9.47,61.31.67,3.66,2.38,7.41,5.45,9.65,3.41,1.56,3.03,5.95,6.24,7.84a75.276,75.276,0,0,0,18.72-.97c-6.13-12.86-17.53-23.23-20.33-37.55-1.69-4.19-3.5-8.61-2.42-13.23,1.62-4.04-.8-8.3.15-12.43.66-10.25,4.81-20.34,2.67-30.67-.12-2.49,1.62-4.87.5-7.34-1.95-5.43-1.29-13.02-6.75-16.38C158.953,121.34,155.2,115.51,155.873,108.77Z" transform="translate(-146.03 -108.77)" fill="#2d2570"/>
        </g>
        <g id="_010101ff" data-name="#010101ff">
          <path id="Path_150" data-name="Path 150" d="M276.247,5.729c-8.074-3.561-13,5.443-19.343,8.255-5,3.266-11.566,3.13-17.312,4.695,3.69-4.377,8-8.391,10.179-13.676-8.718-.794-14.092,6.894-20.458,10.931-5.622,7.847-21.622,4.921-22.761,15.694-.743,7.3-8.52,11.135-9.808,18.211-5,4.377-11.17,7.507-15.678,12.428-1.238,5.624-1.585,13.018-8.2,15.717-.322-4.808,1.288-9.389,2.452-13.993-13.771.023-7.182,18.937-14.414,25.446-9.263,4.785-15.182,15.308-10.576,24.584-.025,6.441,8.619,7.189,11.987,11.839.05,14.9,11.418,27.351,11.12,42.3,6.935,15.15,15.752,29.868,18.526,46.288,1.635,7.756,9.238,11.045,15.207,15.671-.4,5.692-1.189,17.055-1.585,22.747,3.046-3.855,4.235-9.094,8.644-11.952,3.1,10.659,10.055,19.844,16.049,29.256,1.189.091,3.542.25,4.706.318-2.947-10.3-10.724-19.073-12.631-29.732,11.294,6.963,16.792,19.436,28.135,26.489,5.994,1.814,11.021,5.375,16.718,7.8.272-5.375-6.539-6.146-10.105-9.072-14.34-10.251-17.065-26.625-21.225-41.662-3.418-12.95-22.786-19.3-20.829-33.52,11.269,3.969,9.362,20.389,21.646,21.432,8.545,16.465,16.247,33.338,20.681,51.164l2.2.476c2.774-18.415-7.059-34.132-14.736-50.257,6.712-1.225,3.864,6.35,7.7,9.117,5.87,1.089,14.86-7.325,12.284,6.849,2.452,8.958,8.1,16.692,11.839,25.2.545,10.614-.1,21.273.5,31.91,8.891-4.763,6.489-15.24,7.529-23.269,11.1,5.919,13.845,19.413,9.585,29.846,4.309.454,6.861-2.722,9.486-5.239,6.687-20.479-25.832-28.712-19.467-49.35,5.474,3.538,11.17,7.008,17.907,8.1,11.492-2.9,18.848-17.282,31.776-17.191-3.443,17.939-9.486,35.878-7.034,54.339,5.424,26.648-6.464,52.842-5.622,79.559-2.873,30.1-6.365,60.327-4.359,90.558.743,17.848,9.907,33.837,16.693,50.189,10.278,13.744,17.832,28.848,26.625,43.408-3.765,6.327-4.953,13-1.734,19.822-6.836,15.694-20.012,26.557-33.882,36.967-5.647,12.791-12.185,26.058-10.551,40.233,2.848,12.406-3.195,23.745-10.13,33.883C260.2,730.963,210.614,780.086,176.757,838.871c-13.523,17.145-17.411,39.711-34.129,54.7-11.1,22.09,2.5,45.948,3.046,68.627,2.749,18.6,17.015,33.474,20.284,51.935,8.718,23.45,13.028,48.012,23.306,70.986,6.885,24.811,21.126,46.991,33.039,69.943,10.006,22.271,28.755,40.437,37.2,63.434,2.7,9.525,13.4,13.562,20.631,19.753,12.8.045,26.526,2.994,38.686-1.882,9.882-3.923,17.436-11.385,27.145-15.581,8.891,10.841,7.257,25.038,8.223,37.784,3.443.317,4.854,1.928,4.235,4.853-6.539,5.126-16.743,1.769-24.569,4.808-9.932-2.381-19.492-7.053-29.943-8.6-.57,6.8,9.362,6.441,12.706,10.954,5.2,7.983,16,11.34,19.64,20.5,3.344,8.255,12.953,11.476,15.108,20.207,19.839,20.411,47.553,32.635,72.271,47.422-140.529.862-281.082-.022-421.636.431v11.158q391.309.2,782.642,0v-11.158c-113.979-.34-227.982.2-341.985-.249.2-7.8,13.35-9.616,9.065-19.436,5.226-34.88-29.646-58.24-52.581-80.806-2.947-14.061-9.362-27.238-15.8-40.165-2.279-5.33-10.278-7.6-9.882-13.9,12.706,9.571,23.653,21,35.219,31.683,18.278-14.809,39.157-26.965,53.348-45.608,4.334-2.948,5.622-9,10.477-10.909,3.715,2.631,5.87,6.781,9.04,9.979,1.734,27.623,9.09,54.7,17.956,81.055.693,2.54-.124,4.627-2.452,6.282-11.74-6.078-25.906-4.445-38.934-3.946-10.08,10.206-1.858,23.11,7.826,30.708,9.461,5.488,16.52,13.653,24.495,20.751,13.572,10.523,31.058,16.352,42.154,29.528,10.5,5.919,11.938-2.4,15.6-7.235,3.071-14.968,10.576-29.8,7.653-45.313-1.288-20.139-7.009-40.573-2.081-60.644,2.823-16.057,12.408-30.662,10.353-47.422-2.229-13-4.458-27.17-12.8-38.192-22.662-2.948-45.572-4.286-68.184-7.665-14.836-15.308-26.08-33.384-40.222-49.441-14.018-14.583-20.185-33.747-32.99-49.078-23.876-15.036-40.544-37.148-59.193-57.015-13.5-14.288-22.464-31.365-31.826-48.012-4.384-5.08-5.919-11.476-7.034-17.712,9.956-3.13,11.616-12.156,12.706-20.638,14.959-10.614,32.42-18.007,46.513-29.71,24.049-19.527,48.692-38.487,72.568-58.24,37.275-22.158,74.846-44.292,108.678-70.646,23.43-24.312,42.327-54.634,45.076-87.406-.57-21.046,18.774-35.039,27.17-52.888,24.47-31.048,57.064-56.176,78.908-88.9,11.517-23.813,23.776-47.218,34.971-71.281,1.436-14.265,7.059-28.009,10.254-42-1.065-11.453,4.062-23.428-1.387-34.291-5-11.158-17.065-17.78-24-27.85-17.387-23.677-49.658-30.39-74.227-45.562-32.693-19.64-44.754-55.519-68.7-82.189-14.835-14.515-38.562-12.95-58.351-17.236-.941-8.233,9.659-7.053,15.083-4.6-.074-1.542-.223-4.649-.3-6.214-16.916-13.88-43.12-14.129-59.491-27.17,16.445,3.538,33.857-.386,50,3.878-.2-.862-.594-2.563-.817-3.425-13.7-5.556-28.854-5.239-43.293-8.21-6.068-4.377-12.062-8.89-15.777-15.24,11.195-1.61,15.876,8.5,22.513,13.993-.2-6.01-2.13-11.839-.867-17.826-5.721-10.274-13.845-24.131-28.928-21.25-4.532-1.429-13.993-.068-12.433-6.622,11.839-2.971,21.746,3.311,31.95,7.212,8.718,1.225,9.288,12.519,17.733,13.426C482.631,98.9,447.635,94.4,421.06,81.931a138.935,138.935,0,0,1-36.9-14.038c-5.746-2.268-7.851-8.686-14.538-9.435-4.879-5.352-8.47-12-15.653-15.059-16.322-11.385-30.241-25.786-48.073-35.425-8.223-5.1-13.3.816-19.071,3.969-3.591-1.973-6.861-4.422-10.576-6.214m74.326,234.729c-1.659,15.286,7.628,28.508,12.507,41.934,13.523,7.62,11.888,24.834,16.718,37.148,2.774,5.6-1.536,11-1.238,16.647,5.3,23.428-4.978,46.311-6.613,69.557-2.353,9.367,3.641,19.028-.371,28.19-2.675,10.478,1.808,20.5,5.994,30,6.935,32.477,35.169,55.995,50.352,85.16-15.331,2.177-30.835,3.561-46.364,2.2-7.95-4.286-7.009-14.242-15.455-17.78-7.6-5.08-11.839-13.585-13.5-21.885-32.94-39.734-27.269-92.3-23.454-139.046l2.328-.068c-1.486,16.783-1.387,33.452,1.758,50.076-.644,14.605,11,26.557,11.1,41,8.743-8.618,2.477-21.817,4.582-32.136.049-11.657,4.483-22.7,6.811-34.019-7.282-15.376-14.241-30.912-17.312-47.558-4.433-11.09,5.944-20.774,9.065-31,8.049-13.539,2.08-29.8,3.517-44.383-7.5,9.752-7.5,23.246-10.254,34.835-10.4-12-1.684-29.506-4.309-43.385-3.443-11.408,9.684-16.261,14.142-25.491m262.383,130.7c11.343,2.291,25.758.658,32.792,10.659,5.375,16.261,8.248,34.858,1.734,51.164-12.086,13.494-15.108,31.5-26.724,45.494-9.387-.227-11.244,9.457-16.644,14.605-.991-22.044.372-44.111-.446-66.155-3.022-17.055-2.824-34.382-1.833-51.572C604.585,372.179,608.2,368.732,612.956,371.158Z" transform="translate(-2 -4.908)" fill="#2d2570"/>
        </g>
      </g>
      <g id="_297241" data-name="297241" transform="translate(-668.041 1309.469)">
        <path id="Path_147" data-name="Path 147" d="M280.654-1210.039c-7.565,2.418-16.576,9.283-19.471,14.839-3.749,7.321-1.973,13.532,9.341,32.359,10.13,16.931,14.077,26.671,15,36.739.921,10.329-.395,17.977-6.512,38.046-3.881,12.943-4.868,18.631-4.341,26.475a153.116,153.116,0,0,0,4.473,27.456c2.7,10.656,2.7,16.277.132,20.4a25.3,25.3,0,0,1-4.407,5.034c-2.368,1.83-2.96,2.026-7.236,2.026-4.078,0-5.262-.327-8.814-2.223-8.814-4.707-19.273-15.493-28.548-29.417-8.88-13.336-11.314-22.749-18.352-70.666-6.183-42.23-6.973-45.171-14.208-55.3-8.157-11.44-19.668-16.735-30-13.728-4.6,1.307-10.2,5.426-13.814,10.2a71.643,71.643,0,0,0-8.88,17.977c-1.381,4.772-2.039,22.422-1.447,35.627.658,13.4,1.973,19.481,7.3,32.751,9.406,23.73,23.088,39.157,45.387,51.185,18.089,9.74,37.165,31.64,45.914,52.689,5.065,12.159,5.131,19.742.263,25.429-4.012,4.641-16.116,9.675-21.312,8.825-4.407-.719-15.326-4.315-21.641-7.06-5.986-2.615-11.117-5.426-27.035-14.708-10.722-6.21-14.8-7.583-22.694-7.583-4.21,0-7.433.327-8.88.915-8.617,3.6-12.5,10.329-11.182,19.546.724,5.36,2.829,9.348,7.433,14.316,5.328,5.622,8.749,7.125,17.563,7.714,8.485.458,38.218,3.4,44.006,4.314,6.907,1.046,13.222,5.23,15.919,10.459,2.565,5.034.724,11.44-4.276,15.1-5.657,4.184-19.734,9.544-44.335,16.8-27.364,8.171-38.941,10.067-74.462,12.486-30.456,2.092-43.611,3.857-51.768,6.864C20.433-856.905,4.975-842.523,1.62-828.6.239-822.716-.156-806.9.962-800.751,3.791-785.585,15.1-768.458,26.155-762.64c6.644,3.465,11.577,4.314,24.272,4.314,10.393,0,11.577-.131,16.51-1.765a53.111,53.111,0,0,0,9.538-4.445c9.472-6.079,14.406-11.375,31.311-33.927,19.142-25.495,29.337-35.1,38.612-36.346,13.879-1.9,20.128,17.323,11.577,35.627-7.3,15.493-18.287,23.534-50.189,36.739-22.76,9.413-34.8,16.474-43.743,25.691-5.2,5.295-6.052,7.322-6.052,14.316,0,5.883,1.908,11.309,6.052,17.323,12.432,17.781,26.18,18.565,43.809,2.549,11.577-10.655,30.85-34.254,43.217-53.081,7.762-11.832,14.537-16.8,22.76-16.735,6.644,0,11.248,2.092,16.116,7.387,5.657,6.08,9.472,14.97,9.472,21.965,0,2.419-1.052,9.806-2.3,16.408-2.96,15.428-3.026,18.5-.132,22.684,3.026,4.511,7.63,7.714,14.077,9.806,4.736,1.5,6.183,1.7,10.919,1.438,5.591-.392,10.59-2.027,13.156-4.315,1.447-1.307,4.473-7.125,5.723-10.917,4.407-13.793,14.734-19.938,22.036-13.14,1.776,1.634,2.3,2.68,2.3,4.38,0,4.118-14.866,56.611-23.154,81.648-14.471,43.864-26.048,67.594-64.595,132.9-14.866,25.168-17.366,31.64-17.958,46.217-.526,12.617,1.513,21.965,6.315,29.548a12.266,12.266,0,0,0,5.789,4.837c3.42,1.7,4.473,1.9,10.064,1.9,7.63-.065,12.761-1.307,20.72-5.23a49.757,49.757,0,0,0,23.615-23.207c6.052-11.767,8.288-21.7,14.537-65.371,6.512-45.694,9.538-62.952,14.866-85.767,13.287-57.33,32.232-100.541,44.006-100.541,4.8,0,12.7,7.256,16.576,15.166,3.223,6.472,4.078,11.113,4.078,21.442-.066,11.636-1.644,20-7.433,38.242-6.578,20.788-8.025,27.586-8.025,37.392,0,13.009,4.8,23.4,12.5,27.26,4.67,2.353,9.406,3.073,20.457,3.073,18.681,0,28.351-4.118,30.982-13.14,1.25-3.988,1.25-28.044.066-34.32-1.184-6.08-5.46-16.081-12.3-28.371-8.485-15.3-8.551-15.558-8.485-27.194.066-8.5.263-10.525,1.71-15.166,4.341-14.12,14.406-22.945,25.654-22.291,4.21.2,4.6.392,7.367,3.072,5.328,5.164,15,25.887,22.431,48.113,10.525,31.313,16.182,61.122,19.076,100.344,2.3,31.574,3.881,42.687,7.565,53.735,4.67,13.793,13.879,27.979,20.457,31.313,3.749,1.9,8.617,1.634,13.485-.654,10.262-4.837,14.406-12.878,14.208-27.848-.132-11.963-2.3-18.369-16.905-48.7-14.8-30.724-17.694-37.588-25.72-60.795-11.248-32.359-14.274-44.91-14.34-59.815-.066-8.5.132-10.656,1.579-15.951,3.157-11.9,7.367-17.454,14.471-18.958,5.328-1.111,8.617-.915,12.3.915,5.591,2.811,8.222,7.191,13.024,21.9,7.828,23.73,15.721,39.157,25.193,49.159,4.8,5.034,8.486,7.06,12.761,7.06,5.525,0,14.274-3.922,18.418-8.3,2.96-3.2,3.421-5.883,2.763-17.193-.329-5.556-.592-14.839-.592-20.592,0-10.133.066-10.59,1.776-13.859,6.315-11.963,28.68-15.035,45.453-6.276,8.354,4.38,17.3,13.989,21.444,23.207,4.67,10.2,7.63,26.279,10.59,57.069.724,7.518,1.644,15.166,2.039,17,2.434,10.852,12.958,17.977,26.64,17.977,5.591,0,11.774-1.7,18.155-5.034,11.38-5.883,14.471-12.028,13.024-26.018-2.3-22.1-9.341-35.889-39.27-77.334-12.169-16.866-14.6-20.788-17.366-27.913a37.221,37.221,0,0,1,1.513-30.005c2.894-5.36,12.1-14.578,17.1-17,3.157-1.569,4.539-1.83,8.946-1.765,8.749.065,21.444,3.857,35.323,10.525,18.352,8.825,27.825,17.454,35.126,31.9,3.618,7.191,5.986,14.251,9.933,30.267,6.381,25.495,11.577,38.307,21.9,53.866,5,7.518,15.787,18.173,21.181,20.984,6.578,3.465,10.393,4.38,16.182,4.053,6.709-.392,11.972-2.942,17.1-8.171,7.3-7.452,10.656-14.382,12.432-25.691,1.184-7.518,1.644-39.484.724-49.747a90.541,90.541,0,0,0-5.065-24.449c-5.131-15.754-11.906-27.129-22.562-37.654-10.459-10.459-24.075-18.892-35.915-22.292-4.6-1.307-6.709-1.5-16.774-1.5-10.261,0-12.5.2-20.72,1.961a73.286,73.286,0,0,1-19.076,1.9c-8.814,0-10.525-.2-15.787-1.83-9.8-2.942-21.115-8.825-26.575-13.859-6.446-5.949-9.6-12.094-9.538-18.827,0-8.564,4.67-15.1,17.826-25.1,8.617-6.472,13.222-11.048,15.261-14.97,3.289-6.472,3.026-17.454-.592-24.841-2.368-4.838-6.644-8.825-17.3-16.408-8.749-6.21-12.5-10-14.734-15.035-1.381-3.2-1.579-4.445-1.381-9.283.526-13.14,7.1-19.677,33.876-33.47,39.336-20.265,68.871-28.632,101.431-28.632,11.314,0,20.72.85,36.9,3.334,15.261,2.353,22.431,2.68,25.457,1.046,4.276-2.288,8.617-9.152,12.1-19.481,1.973-5.622,2.171-6.8,2.171-14.316,0-6.537-.329-8.891-1.381-11.9-4.144-11.767-13.419-19.873-26.18-23.01-23.023-5.687-59.333-.784-83.934,11.375-15.458,7.648-46.966,29.548-79.856,55.565-24.6,19.481-32.955,23.86-48.611,25.429-13.616,1.373-26.443-2.026-33.876-8.956-9.143-8.564-8.814-20.853.789-29.221,5.92-5.164,12.63-8.106,32.692-14.381,11.38-3.6,22.628-10.982,29.929-19.742,4.21-5.034,9.077-14.512,10.13-19.677,1.25-5.949.855-11.832-1.25-20.069-3.157-12.486-5.065-15.231-12.3-18.042a20.528,20.528,0,0,0-16.116.327c-6.052,2.876-10.722,6.733-22.957,19.154-6.315,6.406-13.287,13.2-15.524,15.035-5.262,4.314-11.511,7.387-16.116,7.844-13.221,1.373-30.719-11.636-34.468-25.429-1.316-4.968-1.118-14.578.395-22.03,1.842-9.152,5.657-20.461,14.537-43.668,10.459-27.26,10.788-28.5,10.722-39.092,0-7.322-.2-9.021-1.579-12.421-4.21-10.917-12.1-17.716-24.338-20.984-5.854-1.569-20.983-1.634-26.838-.065-14.866,3.988-22.628,13.4-31.245,38.111-3.684,10.525-5.065,16.931-5.065,23.468,0,6.929,1.513,12.747,6.315,24.645,2.3,5.622,4.8,12.682,5.591,15.624,1.25,4.772,1.316,5.818.592,8.956-2.7,11.9-19.207,23.73-33.218,23.664-5.131-.065-7.762-1.307-15.129-7.191a58.75,58.75,0,0,0-8.551-5.949c-3.42-1.5-13.353-2.811-18.155-2.354-9.67.85-18.681,8.433-30.521,25.625-10.459,15.166-11.577,16.081-20.72,16.539-10.393.523-17.958-2.55-20.918-8.5-1.184-2.419-1.71-4.9-2.236-11.767-1.579-20.4-5.131-35.1-11.446-47.263-2.236-4.314-5.854-11.309-8.091-15.624-3.749-7.256-4.6-9.479-6.183-15.754-.329-1.438-.789-19.219-1.052-39.55-.46-40.857-.329-39.876-4.67-41.968C288.153-1211.151,284.4-1211.216,280.654-1210.039Z" fill="rgba(5,86,178,0.98)"/>
      </g>
      <g id="_311428-2" data-name="311428" transform="translate(-1470.869 1327.624)">
        <path id="Path_148-2" data-name="Path 148" d="M389.139-1206.927c-21.391,4.312-42.384,23.324-49.1,44.462-3.7,11.541-3.47,18.708.967,37.234,3.47,14.517,8.42,30.978,17.181,57.4,11.037,33.286,13.654,42.579,14.337,51.022.74,9.475-2.617,12.33-12.516,10.63-7.339-1.276-10.013-2.308-11.208-4.434-3.869-6.742-4.267-25.268-1.024-46.891,1.877-12.755.91-17.675-4.381-22.656-3.7-3.462-7.282-4.616-13.938-4.555-15.019.121-37.036,11.662-46.025,24.114-5.86,8.139-7,15.55-3.527,23.142,2.5,5.345,6.429,9.475,16.271,17.007,11.378,8.625,14.507,11.966,14.507,15.307,0,2-2.731,7.349-5.12,10.144-3.186,3.644-6.6,4.981-15.3,5.831-7.51.729-11.321.3-15.759-1.761-4.437-2.126-10.639-7.107-16.271-13.241-9.558-10.265-15.816-19.133-33.736-47.559-22.074-34.986-29.128-43.308-42.839-50.657-17.921-9.6-43.92-11.723-62.182-4.981-6.884,2.49-11.151,5.163-15.247,9.475-6.144,6.5-8.363,14.274-6.713,23.263,5.518,29.823,40.222,62.076,89.319,82.971,6.542,2.794,16.669,6.378,34.533,12.209,9.956,3.28,17.466,7.107,21.107,10.872,2.5,2.551,2.788,3.159,2.788,5.467a10.2,10.2,0,0,1-.683,3.887c-1.877,3.887-6.827,9.354-14.962,16.643-7.225,6.5-10.3,8.747-14.792,11.176-5.8,3.037-11.037,4.8-14.337,4.8-1.65,0-1.877-.182-2.162-2.308-.8-5.224-1.024-6.013-2.276-8.382-3.982-7.349-12.4-11.966-21.9-11.966-10.7,0-18.774,5.1-23.155,14.638-1.991,4.252-2.162,4.981-2.162,9.9s.114,5.467,1.707,7.957c2.389,3.523,6.486,6.074,15.019,9.05,11.606,4.07,14.905,6.864,15.759,13.424.4,2.916-1.081,12.27-2.1,13.606-.967,1.276-6.6,1.032-11.094-.425-8.192-2.672-19.457-9.05-31.8-18.04-14.393-10.447-26.625-21.5-41.815-37.78-6.087-6.56-12.63-13-14.45-14.274A43.786,43.786,0,0,0,64.8-957.832c-23.667-5.163-49.325,14.638-59,45.494-5.063,16.278-4.95,35.776.284,51.447,9.785,29.034,35.557,47.985,73.9,54.3,8.477,1.4,33.793,1.64,40.677.3a104.134,104.134,0,0,0,18.774-5.224,120.06,120.06,0,0,1,23.5-6.8c5.234-.79,6.827-.85,10.24-.182,3.584.668,4.381,1.093,6.429,3.28,2.788,2.916,3.413,5.041,4.21,13.606.91,10.508,0,11.844-14.166,20.348-8.192,4.92-51.941,28.609-55.753,30.188-8.363,3.462-22.131,6.135-37.377,7.228-4.95.364-13.028.972-17.921,1.276-15.873,1.154-26.284,3.705-35.9,8.807C10.3-727.081,3.361-717.909.858-704.85c-3.527,18.526,6.258,44.219,23.439,61.894,23.212,23.81,49.552,22.474,81.3-4.191,5.12-4.252,10.525-9.354,20.481-19.255,4.381-4.373,11.321-11.176,15.361-15.064,4.1-3.948,12.118-12.269,17.921-18.526,11.947-12.877,14.166-14.456,21.277-15.185,5.974-.607,15.019.182,19.286,1.7,12.288,4.373,21.9,16.1,24.634,29.945a45.894,45.894,0,0,1,.683,10.569c-.228,5.345-.455,6.56-1.821,8.99-3.527,6.5-11.89,16.339-31.006,36.809-21.334,22.838-27.99,30.552-34.59,39.906-18.945,26.969-19.059,50.779-.341,70.458,9.046,9.536,23.041,18.4,35.159,22.292,3.186.972,5.575,1.276,11.663,1.276,6.884,0,8.079-.182,11.776-1.579,23.155-9.05,35.329-40.878,38.288-100.16.74-15.246,1.422-21.016,3.072-28.183,3.641-15.185,11.378-23.567,23.382-25.329,8.477-1.215,17.466.243,34.988,5.77,4.836,1.518,14.109,4.13,20.595,5.831,6.429,1.64,12.118,3.159,12.573,3.4,1.081.425,2.674,4.859,2.674,7.532,0,3.644-1.991,11.3-8.135,30.977-6.542,20.895-8.7,28.609-10.923,38.266-3.925,17.432-4.95,35.594-2.56,45.251,8.42,33.954,37.491,47.256,63.832,29.155,8.7-6.013,18.831-18.951,24.065-30.856,3.869-8.686,5.063-14.031,5.006-22.292-.057-9.9-1.422-14.335-10.7-34.622-4.21-9.172-9.046-20.409-10.752-24.964s-5.177-12.938-7.737-18.586c-2.5-5.71-4.551-11.055-4.551-11.905,0-4.859,9.046-10.022,25.658-14.638,15.133-4.252,28.787-5.163,34.76-2.308,2.9,1.336,3.3,2.43,3.3,10.144.057,9.415,3.186,19.862,7.908,26.24,6.486,8.686,21.22,15.732,38.686,18.4,15.247,2.43,27.535-3.887,33.623-17.25,3.129-6.864,4.039-10.994,4.381-20.226.626-16.7-2.1-26.483-9.558-34.318-4.153-4.312-8.534-7.107-20.879-13.241-14.166-6.985-18.546-10.508-19.684-15.914-.967-4.616,9.9-10.812,25.316-14.4,12.573-2.855,31.745-4.8,37.662-3.705,8.477,1.458,17.181,11.662,38.515,44.948,13.426,20.955,16.5,25.389,20.367,29.216,18.831,18.4,62.978,17.189,91.424-2.551,6.03-4.13,15.361-14.213,17.807-19.194,3.015-6.135,3.755-9.415,3.7-16.582a39.05,39.05,0,0,0-1.593-11.844c-8.818-32.253-46.252-67.968-80.956-77.322-5.291-1.4-7.225-1.579-14.621-1.579-7.908,0-9.046.121-15.361,2a37.653,37.653,0,0,1-13.938,2.126c-8.078.061-11.947-.79-18.66-4.191-11.264-5.649-20.481-15.246-31.062-32.192-3.413-5.467-3.755-6.317-3.755-9.111,0-4.07,2.048-8.564,5.689-12.695,2.958-3.341,6.941-5.831,9.216-5.831.74,0,2.731.972,4.438,2.187,8.7,5.892,24.349,7.593,35.272,3.827a33.912,33.912,0,0,0,22.472-24.539c1.138-4.738,1.081-7.046-.284-12.695a39.94,39.94,0,0,0-38.686-30.734c-10.639,0-17.295,3.584-22.813,12.27a24.867,24.867,0,0,1-2.788,3.827c-1.479.972-7.054-4.191-10.752-10.022-5.8-9.111-7.623-14.274-7.68-21.259a16.713,16.713,0,0,1,1.82-8.747c3.527-8.078,12.687-16.035,29.014-25.207,11.037-6.2,12.459-6.742,17.124-6.742,6.258,0,10.809,2.065,25.772,11.662,18.774,12.026,28.616,15.671,42.27,15.671,13.313,0,24.918-4.009,39.767-13.849,14.962-9.9,26.4-21.806,31.8-33.225a39.884,39.884,0,0,0,4.039-19.133c0-5.831-.284-7.775-1.536-11.844-5.86-19.012-26-35.958-50.462-42.518-18.376-4.92-31.4-3.341-48.926,6.074-17.181,9.172-29.982,19.133-64.287,50.111-21.5,19.376-24.463,21.927-30.721,26.361-6.315,4.495-8.534,5.224-11.151,3.705a12.231,12.231,0,0,1-3.414-3.159c-2.048-2.916-5.632-11.3-6.713-15.975-1.309-5.406-1.764-15.246-.967-19.558.74-3.644,2.446-6.56,3.812-6.56.967,0,12-4.981,23.155-10.387,21.107-10.326,29.128-18.647,29.071-30.309a36.055,36.055,0,0,0-1.024-8.2c-1.536-5.588-6.827-16.582-10.013-20.773-12.118-16.1-31.631-21.38-45.513-12.27-5.291,3.462-9.728,9.9-12.118,17.675a72.888,72.888,0,0,0-2.1,16.1c0,2.733-.284,3.523-1.821,5.406-5.4,6.56-19.172,12.148-33.679,13.667-13.768,1.4-21.619-1.64-28.787-11.237-8.249-11.115-13.881-29.52-12.857-42.154.341-4.434,1.138-7.167,8.875-30.492,9.1-27.576,12.175-46.223,10.013-61.712-2.845-20.773-12.971-35.108-28.218-40.028C404.158-1207.717,394.487-1208.021,389.139-1206.927Z" transform="translate(195 -119)" fill="#ff7169"/>
      </g>
      <g id="_311428-3" data-name="311428" transform="translate(-1499.869 1204.624)">
        <path id="Path_148-3" data-name="Path 148" d="M389.139-1206.927c-21.391,4.312-42.384,23.324-49.1,44.462-3.7,11.541-3.47,18.708.967,37.234,3.47,14.517,8.42,30.978,17.181,57.4,11.037,33.286,13.654,42.579,14.337,51.022.74,9.475-2.617,12.33-12.516,10.63-7.339-1.276-10.013-2.308-11.208-4.434-3.869-6.742-4.267-25.268-1.024-46.891,1.877-12.755.91-17.675-4.381-22.656-3.7-3.462-7.282-4.616-13.938-4.555-15.019.121-37.036,11.662-46.025,24.114-5.86,8.139-7,15.55-3.527,23.142,2.5,5.345,6.429,9.475,16.271,17.007,11.378,8.625,14.507,11.966,14.507,15.307,0,2-2.731,7.349-5.12,10.144-3.186,3.644-6.6,4.981-15.3,5.831-7.51.729-11.321.3-15.759-1.761-4.437-2.126-10.639-7.107-16.271-13.241-9.558-10.265-15.816-19.133-33.736-47.559-22.074-34.986-29.128-43.308-42.839-50.657-17.921-9.6-43.92-11.723-62.182-4.981-6.884,2.49-11.151,5.163-15.247,9.475-6.144,6.5-8.363,14.274-6.713,23.263,5.518,29.823,40.222,62.076,89.319,82.971,6.542,2.794,16.669,6.378,34.533,12.209,9.956,3.28,17.466,7.107,21.107,10.872,2.5,2.551,2.788,3.159,2.788,5.467a10.2,10.2,0,0,1-.683,3.887c-1.877,3.887-6.827,9.354-14.962,16.643-7.225,6.5-10.3,8.747-14.792,11.176-5.8,3.037-11.037,4.8-14.337,4.8-1.65,0-1.877-.182-2.162-2.308-.8-5.224-1.024-6.013-2.276-8.382-3.982-7.349-12.4-11.966-21.9-11.966-10.7,0-18.774,5.1-23.155,14.638-1.991,4.252-2.162,4.981-2.162,9.9s.114,5.467,1.707,7.957c2.389,3.523,6.486,6.074,15.019,9.05,11.606,4.07,14.905,6.864,15.759,13.424.4,2.916-1.081,12.27-2.1,13.606-.967,1.276-6.6,1.032-11.094-.425-8.192-2.672-19.457-9.05-31.8-18.04-14.393-10.447-26.625-21.5-41.815-37.78-6.087-6.56-12.63-13-14.45-14.274A43.786,43.786,0,0,0,64.8-957.832c-23.667-5.163-49.325,14.638-59,45.494-5.063,16.278-4.95,35.776.284,51.447,9.785,29.034,35.557,47.985,73.9,54.3,8.477,1.4,33.793,1.64,40.677.3a104.134,104.134,0,0,0,18.774-5.224,120.06,120.06,0,0,1,23.5-6.8c5.234-.79,6.827-.85,10.24-.182,3.584.668,4.381,1.093,6.429,3.28,2.788,2.916,3.413,5.041,4.21,13.606.91,10.508,0,11.844-14.166,20.348-8.192,4.92-51.941,28.609-55.753,30.188-8.363,3.462-22.131,6.135-37.377,7.228-4.95.364-13.028.972-17.921,1.276-15.873,1.154-26.284,3.705-35.9,8.807C10.3-727.081,3.361-717.909.858-704.85c-3.527,18.526,6.258,44.219,23.439,61.894,23.212,23.81,49.552,22.474,81.3-4.191,5.12-4.252,10.525-9.354,20.481-19.255,4.381-4.373,11.321-11.176,15.361-15.064,4.1-3.948,12.118-12.269,17.921-18.526,11.947-12.877,14.166-14.456,21.277-15.185,5.974-.607,15.019.182,19.286,1.7,12.288,4.373,21.9,16.1,24.634,29.945a45.894,45.894,0,0,1,.683,10.569c-.228,5.345-.455,6.56-1.821,8.99-3.527,6.5-11.89,16.339-31.006,36.809-21.334,22.838-27.99,30.552-34.59,39.906-18.945,26.969-19.059,50.779-.341,70.458,9.046,9.536,23.041,18.4,35.159,22.292,3.186.972,5.575,1.276,11.663,1.276,6.884,0,8.079-.182,11.776-1.579,23.155-9.05,35.329-40.878,38.288-100.16.74-15.246,1.422-21.016,3.072-28.183,3.641-15.185,11.378-23.567,23.382-25.329,8.477-1.215,17.466.243,34.988,5.77,4.836,1.518,14.109,4.13,20.595,5.831,6.429,1.64,12.118,3.159,12.573,3.4,1.081.425,2.674,4.859,2.674,7.532,0,3.644-1.991,11.3-8.135,30.977-6.542,20.895-8.7,28.609-10.923,38.266-3.925,17.432-4.95,35.594-2.56,45.251,8.42,33.954,37.491,47.256,63.832,29.155,8.7-6.013,18.831-18.951,24.065-30.856,3.869-8.686,5.063-14.031,5.006-22.292-.057-9.9-1.422-14.335-10.7-34.622-4.21-9.172-9.046-20.409-10.752-24.964s-5.177-12.938-7.737-18.586c-2.5-5.71-4.551-11.055-4.551-11.905,0-4.859,9.046-10.022,25.658-14.638,15.133-4.252,28.787-5.163,34.76-2.308,2.9,1.336,3.3,2.43,3.3,10.144.057,9.415,3.186,19.862,7.908,26.24,6.486,8.686,21.22,15.732,38.686,18.4,15.247,2.43,27.535-3.887,33.623-17.25,3.129-6.864,4.039-10.994,4.381-20.226.626-16.7-2.1-26.483-9.558-34.318-4.153-4.312-8.534-7.107-20.879-13.241-14.166-6.985-18.546-10.508-19.684-15.914-.967-4.616,9.9-10.812,25.316-14.4,12.573-2.855,31.745-4.8,37.662-3.705,8.477,1.458,17.181,11.662,38.515,44.948,13.426,20.955,16.5,25.389,20.367,29.216,18.831,18.4,62.978,17.189,91.424-2.551,6.03-4.13,15.361-14.213,17.807-19.194,3.015-6.135,3.755-9.415,3.7-16.582a39.05,39.05,0,0,0-1.593-11.844c-8.818-32.253-46.252-67.968-80.956-77.322-5.291-1.4-7.225-1.579-14.621-1.579-7.908,0-9.046.121-15.361,2a37.653,37.653,0,0,1-13.938,2.126c-8.078.061-11.947-.79-18.66-4.191-11.264-5.649-20.481-15.246-31.062-32.192-3.413-5.467-3.755-6.317-3.755-9.111,0-4.07,2.048-8.564,5.689-12.695,2.958-3.341,6.941-5.831,9.216-5.831.74,0,2.731.972,4.438,2.187,8.7,5.892,24.349,7.593,35.272,3.827a33.912,33.912,0,0,0,22.472-24.539c1.138-4.738,1.081-7.046-.284-12.695a39.94,39.94,0,0,0-38.686-30.734c-10.639,0-17.295,3.584-22.813,12.27a24.867,24.867,0,0,1-2.788,3.827c-1.479.972-7.054-4.191-10.752-10.022-5.8-9.111-7.623-14.274-7.68-21.259a16.713,16.713,0,0,1,1.82-8.747c3.527-8.078,12.687-16.035,29.014-25.207,11.037-6.2,12.459-6.742,17.124-6.742,6.258,0,10.809,2.065,25.772,11.662,18.774,12.026,28.616,15.671,42.27,15.671,13.313,0,24.918-4.009,39.767-13.849,14.962-9.9,26.4-21.806,31.8-33.225a39.884,39.884,0,0,0,4.039-19.133c0-5.831-.284-7.775-1.536-11.844-5.86-19.012-26-35.958-50.462-42.518-18.376-4.92-31.4-3.341-48.926,6.074-17.181,9.172-29.982,19.133-64.287,50.111-21.5,19.376-24.463,21.927-30.721,26.361-6.315,4.495-8.534,5.224-11.151,3.705a12.231,12.231,0,0,1-3.414-3.159c-2.048-2.916-5.632-11.3-6.713-15.975-1.309-5.406-1.764-15.246-.967-19.558.74-3.644,2.446-6.56,3.812-6.56.967,0,12-4.981,23.155-10.387,21.107-10.326,29.128-18.647,29.071-30.309a36.055,36.055,0,0,0-1.024-8.2c-1.536-5.588-6.827-16.582-10.013-20.773-12.118-16.1-31.631-21.38-45.513-12.27-5.291,3.462-9.728,9.9-12.118,17.675a72.888,72.888,0,0,0-2.1,16.1c0,2.733-.284,3.523-1.821,5.406-5.4,6.56-19.172,12.148-33.679,13.667-13.768,1.4-21.619-1.64-28.787-11.237-8.249-11.115-13.881-29.52-12.857-42.154.341-4.434,1.138-7.167,8.875-30.492,9.1-27.576,12.175-46.223,10.013-61.712-2.845-20.773-12.971-35.108-28.218-40.028C404.158-1207.717,394.487-1208.021,389.139-1206.927Z" transform="translate(195 -119)" fill="rgba(255,113,105,0.31)"/>
      </g>
      <g id="_297241-2" data-name="297241" transform="translate(-577.041 1309.469)">
        <path id="Path_147-2" data-name="Path 147" d="M280.654-1210.039c-7.565,2.418-16.576,9.283-19.471,14.839-3.749,7.321-1.973,13.532,9.341,32.359,10.13,16.931,14.077,26.671,15,36.739.921,10.329-.395,17.977-6.512,38.046-3.881,12.943-4.868,18.631-4.341,26.475a153.116,153.116,0,0,0,4.473,27.456c2.7,10.656,2.7,16.277.132,20.4a25.3,25.3,0,0,1-4.407,5.034c-2.368,1.83-2.96,2.026-7.236,2.026-4.078,0-5.262-.327-8.814-2.223-8.814-4.707-19.273-15.493-28.548-29.417-8.88-13.336-11.314-22.749-18.352-70.666-6.183-42.23-6.973-45.171-14.208-55.3-8.157-11.44-19.668-16.735-30-13.728-4.6,1.307-10.2,5.426-13.814,10.2a71.643,71.643,0,0,0-8.88,17.977c-1.381,4.772-2.039,22.422-1.447,35.627.658,13.4,1.973,19.481,7.3,32.751,9.406,23.73,23.088,39.157,45.387,51.185,18.089,9.74,37.165,31.64,45.914,52.689,5.065,12.159,5.131,19.742.263,25.429-4.012,4.641-16.116,9.675-21.312,8.825-4.407-.719-15.326-4.315-21.641-7.06-5.986-2.615-11.117-5.426-27.035-14.708-10.722-6.21-14.8-7.583-22.694-7.583-4.21,0-7.433.327-8.88.915-8.617,3.6-12.5,10.329-11.182,19.546.724,5.36,2.829,9.348,7.433,14.316,5.328,5.622,8.749,7.125,17.563,7.714,8.485.458,38.218,3.4,44.006,4.314,6.907,1.046,13.222,5.23,15.919,10.459,2.565,5.034.724,11.44-4.276,15.1-5.657,4.184-19.734,9.544-44.335,16.8-27.364,8.171-38.941,10.067-74.462,12.486-30.456,2.092-43.611,3.857-51.768,6.864C20.433-856.905,4.975-842.523,1.62-828.6.239-822.716-.156-806.9.962-800.751,3.791-785.585,15.1-768.458,26.155-762.64c6.644,3.465,11.577,4.314,24.272,4.314,10.393,0,11.577-.131,16.51-1.765a53.111,53.111,0,0,0,9.538-4.445c9.472-6.079,14.406-11.375,31.311-33.927,19.142-25.495,29.337-35.1,38.612-36.346,13.879-1.9,20.128,17.323,11.577,35.627-7.3,15.493-18.287,23.534-50.189,36.739-22.76,9.413-34.8,16.474-43.743,25.691-5.2,5.295-6.052,7.322-6.052,14.316,0,5.883,1.908,11.309,6.052,17.323,12.432,17.781,26.18,18.565,43.809,2.549,11.577-10.655,30.85-34.254,43.217-53.081,7.762-11.832,14.537-16.8,22.76-16.735,6.644,0,11.248,2.092,16.116,7.387,5.657,6.08,9.472,14.97,9.472,21.965,0,2.419-1.052,9.806-2.3,16.408-2.96,15.428-3.026,18.5-.132,22.684,3.026,4.511,7.63,7.714,14.077,9.806,4.736,1.5,6.183,1.7,10.919,1.438,5.591-.392,10.59-2.027,13.156-4.315,1.447-1.307,4.473-7.125,5.723-10.917,4.407-13.793,14.734-19.938,22.036-13.14,1.776,1.634,2.3,2.68,2.3,4.38,0,4.118-14.866,56.611-23.154,81.648-14.471,43.864-26.048,67.594-64.595,132.9-14.866,25.168-17.366,31.64-17.958,46.217-.526,12.617,1.513,21.965,6.315,29.548a12.266,12.266,0,0,0,5.789,4.837c3.42,1.7,4.473,1.9,10.064,1.9,7.63-.065,12.761-1.307,20.72-5.23a49.757,49.757,0,0,0,23.615-23.207c6.052-11.767,8.288-21.7,14.537-65.371,6.512-45.694,9.538-62.952,14.866-85.767,13.287-57.33,32.232-100.541,44.006-100.541,4.8,0,12.7,7.256,16.576,15.166,3.223,6.472,4.078,11.113,4.078,21.442-.066,11.636-1.644,20-7.433,38.242-6.578,20.788-8.025,27.586-8.025,37.392,0,13.009,4.8,23.4,12.5,27.26,4.67,2.353,9.406,3.073,20.457,3.073,18.681,0,28.351-4.118,30.982-13.14,1.25-3.988,1.25-28.044.066-34.32-1.184-6.08-5.46-16.081-12.3-28.371-8.485-15.3-8.551-15.558-8.485-27.194.066-8.5.263-10.525,1.71-15.166,4.341-14.12,14.406-22.945,25.654-22.291,4.21.2,4.6.392,7.367,3.072,5.328,5.164,15,25.887,22.431,48.113,10.525,31.313,16.182,61.122,19.076,100.344,2.3,31.574,3.881,42.687,7.565,53.735,4.67,13.793,13.879,27.979,20.457,31.313,3.749,1.9,8.617,1.634,13.485-.654,10.262-4.837,14.406-12.878,14.208-27.848-.132-11.963-2.3-18.369-16.905-48.7-14.8-30.724-17.694-37.588-25.72-60.795-11.248-32.359-14.274-44.91-14.34-59.815-.066-8.5.132-10.656,1.579-15.951,3.157-11.9,7.367-17.454,14.471-18.958,5.328-1.111,8.617-.915,12.3.915,5.591,2.811,8.222,7.191,13.024,21.9,7.828,23.73,15.721,39.157,25.193,49.159,4.8,5.034,8.486,7.06,12.761,7.06,5.525,0,14.274-3.922,18.418-8.3,2.96-3.2,3.421-5.883,2.763-17.193-.329-5.556-.592-14.839-.592-20.592,0-10.133.066-10.59,1.776-13.859,6.315-11.963,28.68-15.035,45.453-6.276,8.354,4.38,17.3,13.989,21.444,23.207,4.67,10.2,7.63,26.279,10.59,57.069.724,7.518,1.644,15.166,2.039,17,2.434,10.852,12.958,17.977,26.64,17.977,5.591,0,11.774-1.7,18.155-5.034,11.38-5.883,14.471-12.028,13.024-26.018-2.3-22.1-9.341-35.889-39.27-77.334-12.169-16.866-14.6-20.788-17.366-27.913a37.221,37.221,0,0,1,1.513-30.005c2.894-5.36,12.1-14.578,17.1-17,3.157-1.569,4.539-1.83,8.946-1.765,8.749.065,21.444,3.857,35.323,10.525,18.352,8.825,27.825,17.454,35.126,31.9,3.618,7.191,5.986,14.251,9.933,30.267,6.381,25.495,11.577,38.307,21.9,53.866,5,7.518,15.787,18.173,21.181,20.984,6.578,3.465,10.393,4.38,16.182,4.053,6.709-.392,11.972-2.942,17.1-8.171,7.3-7.452,10.656-14.382,12.432-25.691,1.184-7.518,1.644-39.484.724-49.747a90.541,90.541,0,0,0-5.065-24.449c-5.131-15.754-11.906-27.129-22.562-37.654-10.459-10.459-24.075-18.892-35.915-22.292-4.6-1.307-6.709-1.5-16.774-1.5-10.261,0-12.5.2-20.72,1.961a73.286,73.286,0,0,1-19.076,1.9c-8.814,0-10.525-.2-15.787-1.83-9.8-2.942-21.115-8.825-26.575-13.859-6.446-5.949-9.6-12.094-9.538-18.827,0-8.564,4.67-15.1,17.826-25.1,8.617-6.472,13.222-11.048,15.261-14.97,3.289-6.472,3.026-17.454-.592-24.841-2.368-4.838-6.644-8.825-17.3-16.408-8.749-6.21-12.5-10-14.734-15.035-1.381-3.2-1.579-4.445-1.381-9.283.526-13.14,7.1-19.677,33.876-33.47,39.336-20.265,68.871-28.632,101.431-28.632,11.314,0,20.72.85,36.9,3.334,15.261,2.353,22.431,2.68,25.457,1.046,4.276-2.288,8.617-9.152,12.1-19.481,1.973-5.622,2.171-6.8,2.171-14.316,0-6.537-.329-8.891-1.381-11.9-4.144-11.767-13.419-19.873-26.18-23.01-23.023-5.687-59.333-.784-83.934,11.375-15.458,7.648-46.966,29.548-79.856,55.565-24.6,19.481-32.955,23.86-48.611,25.429-13.616,1.373-26.443-2.026-33.876-8.956-9.143-8.564-8.814-20.853.789-29.221,5.92-5.164,12.63-8.106,32.692-14.381,11.38-3.6,22.628-10.982,29.929-19.742,4.21-5.034,9.077-14.512,10.13-19.677,1.25-5.949.855-11.832-1.25-20.069-3.157-12.486-5.065-15.231-12.3-18.042a20.528,20.528,0,0,0-16.116.327c-6.052,2.876-10.722,6.733-22.957,19.154-6.315,6.406-13.287,13.2-15.524,15.035-5.262,4.314-11.511,7.387-16.116,7.844-13.221,1.373-30.719-11.636-34.468-25.429-1.316-4.968-1.118-14.578.395-22.03,1.842-9.152,5.657-20.461,14.537-43.668,10.459-27.26,10.788-28.5,10.722-39.092,0-7.322-.2-9.021-1.579-12.421-4.21-10.917-12.1-17.716-24.338-20.984-5.854-1.569-20.983-1.634-26.838-.065-14.866,3.988-22.628,13.4-31.245,38.111-3.684,10.525-5.065,16.931-5.065,23.468,0,6.929,1.513,12.747,6.315,24.645,2.3,5.622,4.8,12.682,5.591,15.624,1.25,4.772,1.316,5.818.592,8.956-2.7,11.9-19.207,23.73-33.218,23.664-5.131-.065-7.762-1.307-15.129-7.191a58.75,58.75,0,0,0-8.551-5.949c-3.42-1.5-13.353-2.811-18.155-2.354-9.67.85-18.681,8.433-30.521,25.625-10.459,15.166-11.577,16.081-20.72,16.539-10.393.523-17.958-2.55-20.918-8.5-1.184-2.419-1.71-4.9-2.236-11.767-1.579-20.4-5.131-35.1-11.446-47.263-2.236-4.314-5.854-11.309-8.091-15.624-3.749-7.256-4.6-9.479-6.183-15.754-.329-1.438-.789-19.219-1.052-39.55-.46-40.857-.329-39.876-4.67-41.968C288.153-1211.151,284.4-1211.216,280.654-1210.039Z" fill="rgba(5,86,178,0.26)"/>
      </g>
    </g>
    <g id="Disk" transform="translate(817 176)">
      <path id="Path_1" data-name="Path 1" d="M437.074,74.99A256.032,256.032,0,1,0,74.99,437.073,256.032,256.032,0,1,0,437.074,74.99Z" transform="translate(-2690.145 -48.563)" fill="#2d2570"/>
      <circle id="Ellipse_1" data-name="Ellipse 1" cx="128.477" cy="128.477" r="128.477" transform="translate(-2615.834 207.469) rotate(-45)" fill="#ff7169"/>
      <path id="Path_4" data-name="Path 4" d="M256.032,201.961a54.07,54.07,0,1,0,54.071,54.07,54.132,54.132,0,0,0-54.071-54.07Z" transform="translate(-2690.145 -48.563)" fill="#fff"/>
      <path id="Path_9" data-name="Path 9" d="M97.5,212.489l-28.934-7.928A195.254,195.254,0,0,1,203.21,68.939l8.138,28.875A165.1,165.1,0,0,0,97.505,212.489Z" transform="translate(-2690.145 -48.563)" fill="#0556b2"/>
      <path id="Path_10" data-name="Path 10" d="M308.854,443.125l-8.138-28.875A165.092,165.092,0,0,0,414.558,299.574l28.934,7.928A195.252,195.252,0,0,1,308.854,443.125Z" transform="translate(-2690.145 -48.563)" fill="#0556b2"/>
    </g>
    <g id="Handle" transform="translate(745 408)">
      <path id="Path_5" data-name="Path 5" d="M0,0H178.22V30H0Z" transform="translate(-2233.427 -186.442) rotate(-45)" fill="#dff5ff"/>
      <path id="Path_6" data-name="Path 6" d="M0,0H178.22V14.732H0Z" transform="translate(-2222.633 -175.648) rotate(-45)" fill="#bfebff"/>
      <path id="Path_7" data-name="Path 7" d="M0,0H48.97V30H0Z" transform="translate(-2325.143 -94.752) rotate(-45)" fill="#dff5ff"/>
      <path id="Path_8" data-name="Path 8" d="M0,0H48.969V14.732H0Z" transform="translate(-2314.349 -83.959) rotate(-45)" fill="#bfebff"/>
      <path id="Path_11" data-name="Path 11" d="M352.234,92.349,307.679,136.9a47.715,47.715,0,1,0,67.48,67.479l44.555-44.555Z" transform="translate(-2598.145 -312.563)" fill="#bfebff"/>
      <path id="Path_13" data-name="Path 13" d="M307.873,204.569a47.7,47.7,0,0,0,67.286-.186l44.555-44.555-33.551-33.551Z" transform="translate(-2598.145 -312.563)" fill="#7ed7ff"/>
    </g>
  </g>
</svg>
